<?xml version="1.0" standalone="no"?>
<!DOCTYPE svg PUBLIC "-//W3C//DTD SVG 20010904//EN"
 "http://www.w3.org/TR/2001/REC-SVG-20010904/DTD/svg10.dtd">
<svg version="1.0" xmlns="http://www.w3.org/2000/svg"
 width="1200.000000pt" height="1200.000000pt" viewBox="0 0 1200.000000 1200.000000"
 preserveAspectRatio="xMidYMid meet">
<metadata>
Created by potrace 1.11, written by Peter Selinger 2001-2013
</metadata>
<g transform="translate(0.000000,1200.000000) scale(0.100000,-0.100000)"
fill="#000000" stroke="none">
<path d="M5718 11755 c-2 -1 -55 -6 -118 -9 -63 -4 -126 -9 -140 -11 -14 -2
-52 -6 -85 -10 -64 -6 -272 -34 -303 -40 -11 -2 -35 -6 -53 -9 -502 -80 -1068
-265 -1566 -510 -144 -72 -220 -112 -398 -216 -164 -94 -482 -314 -640 -441
-314 -253 -668 -606 -908 -905 -26 -32 -52 -65 -57 -72 -36 -42 -209 -285
-272 -382 -296 -452 -580 -1067 -709 -1540 -31 -112 -79 -292 -83 -315 -26
-124 -66 -329 -71 -365 -3 -25 -8 -56 -10 -70 -4 -22 -10 -66 -20 -140 -9 -59
-18 -157 -31 -320 -16 -198 -9 -817 11 -930 2 -14 7 -56 10 -95 3 -38 7 -79 9
-91 2 -12 7 -45 11 -75 3 -30 8 -65 10 -79 4 -24 11 -61 21 -125 2 -16 7 -41
9 -55 3 -14 7 -34 9 -45 78 -406 223 -868 389 -1240 34 -77 198 -405 221 -445
9 -14 45 -77 82 -140 123 -212 396 -604 500 -720 12 -14 49 -56 81 -95 186
-224 542 -570 773 -752 500 -394 961 -661 1515 -878 138 -54 469 -166 530
-180 11 -2 74 -18 140 -36 159 -41 324 -77 439 -95 21 -3 48 -7 59 -10 18 -3
109 -16 209 -29 18 -3 60 -7 93 -10 33 -3 74 -8 90 -10 182 -26 906 -26 1075
0 14 2 54 6 90 10 55 5 170 21 310 41 235 35 657 141 920 231 281 96 748 305
953 427 43 25 80 46 82 46 13 0 432 273 480 312 5 4 28 22 50 38 77 57 100 75
175 135 271 216 555 493 810 790 308 359 630 870 835 1325 31 69 60 134 65
145 81 176 249 685 285 864 2 9 15 66 28 126 22 95 39 179 61 310 7 38 27 182
31 215 12 111 18 168 21 183 26 142 25 785 -1 1072 -38 423 -127 846 -265
1265 -162 492 -377 938 -665 1375 -86 130 -303 427 -329 450 -6 6 -27 30 -47
55 -45 55 -56 68 -169 195 -179 201 -497 496 -700 651 -36 27 -67 52 -70 55
-10 13 -230 168 -340 241 -303 199 -651 381 -1000 521 -456 184 -998 325
-1430 372 -14 2 -47 5 -75 9 -27 3 -80 8 -116 11 -36 3 -87 8 -115 11 -54 6
-691 14 -696 9z m1242 -3835 l0 -960 960 0 960 0 0 -960 0 -960 -960 0 -960 0
0 -960 0 -960 -960 0 -960 0 0 960 0 960 -960 0 -960 0 0 960 0 960 960 0 960
0 0 960 0 960 960 0 960 0 0 -960z"/>
</g>
</svg>
